<svg width="64" height="64" viewBox="0 0 64 64" fill="none" xmlns="http://www.w3.org/2000/svg">
<path d="M28.0001 42.6667L22.6667 37.3333L28.0001 32" stroke="url(#paint0_linear_11_53795)" stroke-width="4" stroke-linecap="round" stroke-linejoin="round"/>
<path d="M36 32L41.3333 37.3333L36 42.6667" stroke="url(#paint1_linear_11_53795)" stroke-width="4" stroke-linecap="round" stroke-linejoin="round"/>
<path d="M50.6667 18.6667V13.3333C50.6667 10.3878 48.2789 8 45.3333 8H13.3333C10.3878 8 8 10.3878 8 13.3333V13.3333C8 16.2789 10.3878 18.6667 13.3333 18.6667H50.6667C53.6122 18.6667 56 21.0545 56 24V50.6667C56 53.6122 53.6122 56 50.6667 56H13.3333C10.3878 56 8 53.6122 8 50.6667V13.3333" stroke="url(#paint2_linear_11_53795)" stroke-width="4" stroke-linecap="round" stroke-linejoin="round"/>
<defs>
<linearGradient id="paint0_linear_11_53795" x1="22.6667" y1="32" x2="28.0637" y2="32.0323" gradientUnits="userSpaceOnUse">
<stop stop-color="#F9F871"/>
<stop offset="1" stop-color="#E23A7A"/>
</linearGradient>
<linearGradient id="paint1_linear_11_53795" x1="36" y1="32" x2="41.397" y2="32.0323" gradientUnits="userSpaceOnUse">
<stop stop-color="#F9F871"/>
<stop offset="1" stop-color="#E23A7A"/>
</linearGradient>
<linearGradient id="paint2_linear_11_53795" x1="8" y1="8" x2="56.5675" y2="8.58129" gradientUnits="userSpaceOnUse">
<stop stop-color="#AF258F"/>
<stop offset="1" stop-color="#9747FF"/>
</linearGradient>
</defs>
</svg>
