<svg width="64" height="64" viewBox="0 0 64 64" fill="none" xmlns="http://www.w3.org/2000/svg">
<path d="M55.4466 25.3961C57.5533 27.5029 57.5533 30.9186 55.4466 33.0253C53.3398 35.1321 49.9241 35.1321 47.8174 33.0253C45.7106 30.9186 45.7106 27.5028 47.8174 25.3961C49.9241 23.2894 53.3398 23.2894 55.4466 25.3961" stroke="url(#paint0_linear_11_54097)" stroke-width="4" stroke-linecap="round" stroke-linejoin="round"/>
<path d="M37.8736 15.7663C41.1176 19.0103 41.1176 24.2698 37.8736 27.5137C34.6297 30.7577 29.3702 30.7577 26.1262 27.5137C22.8823 24.2698 22.8823 19.0103 26.1262 15.7663C29.3701 12.5224 34.6296 12.5224 37.8736 15.7663" stroke="url(#paint1_linear_11_54097)" stroke-width="4" stroke-linecap="round" stroke-linejoin="round"/>
<path d="M16.1825 25.3961C18.2893 27.5029 18.2893 30.9186 16.1825 33.0253C14.0758 35.1321 10.6601 35.1321 8.55333 33.0253C6.44658 30.9186 6.44658 27.5028 8.55333 25.3961C10.6601 23.2894 14.0758 23.2894 16.1825 25.3961" stroke="url(#paint2_linear_11_54097)" stroke-width="4" stroke-linecap="round" stroke-linejoin="round"/>
<path d="M61.3333 50.6667V47.7441C61.3333 44.0614 58.3493 41.0774 54.6666 41.0774H52.5306" stroke="url(#paint3_linear_11_54097)" stroke-width="4" stroke-linecap="round" stroke-linejoin="round"/>
<path d="M2.66663 50.6667V47.7441C2.66663 44.0614 5.65063 41.0774 9.33329 41.0774H11.4693" stroke="url(#paint4_linear_11_54097)" stroke-width="4" stroke-linecap="round" stroke-linejoin="round"/>
<path d="M46.2373 50.6668V46.3974C46.2373 41.2428 42.0587 37.0641 36.904 37.0641H27.0933C21.9387 37.0641 17.76 41.2428 17.76 46.3974V50.6668" stroke="url(#paint5_linear_11_54097)" stroke-width="4" stroke-linecap="round" stroke-linejoin="round"/>
<defs>
<linearGradient id="paint0_linear_11_54097" x1="46.2373" y1="23.816" x2="57.1542" y2="23.9467" gradientUnits="userSpaceOnUse">
<stop stop-color="#F9F871"/>
<stop offset="1" stop-color="#E23A7A"/>
</linearGradient>
<linearGradient id="paint1_linear_11_54097" x1="23.6932" y1="13.3334" x2="40.503" y2="13.5346" gradientUnits="userSpaceOnUse">
<stop stop-color="#AF258F"/>
<stop offset="1" stop-color="#9747FF"/>
</linearGradient>
<linearGradient id="paint2_linear_11_54097" x1="6.97327" y1="23.816" x2="17.8902" y2="23.9467" gradientUnits="userSpaceOnUse">
<stop stop-color="#F9F871"/>
<stop offset="1" stop-color="#E23A7A"/>
</linearGradient>
<linearGradient id="paint3_linear_11_54097" x1="52.5306" y1="41.0774" x2="61.4376" y2="41.1753" gradientUnits="userSpaceOnUse">
<stop stop-color="#F9F871"/>
<stop offset="1" stop-color="#E23A7A"/>
</linearGradient>
<linearGradient id="paint4_linear_11_54097" x1="2.66663" y1="41.0774" x2="11.5736" y2="41.1753" gradientUnits="userSpaceOnUse">
<stop stop-color="#F9F871"/>
<stop offset="1" stop-color="#E23A7A"/>
</linearGradient>
<linearGradient id="paint5_linear_11_54097" x1="17.76" y1="37.0641" x2="46.5601" y2="37.7857" gradientUnits="userSpaceOnUse">
<stop stop-color="#AF258F"/>
<stop offset="1" stop-color="#9747FF"/>
</linearGradient>
</defs>
</svg>
