
<svg width="65" height="64" viewBox="0 0 65 64" fill="none" xmlns="http://www.w3.org/2000/svg">
<path d="M46.5053 17.9943C52.1701 23.659 53.8647 32.1783 50.7989 39.5796C47.7332 46.9809 40.5109 51.8067 32.4998 51.8067C24.4887 51.8067 17.2664 46.9809 14.2007 39.5796C11.1349 32.1783 12.8295 23.659 18.4943 17.9943C22.2086 14.2796 27.2466 12.1926 32.4998 12.1926C37.753 12.1926 42.791 14.2796 46.5053 17.9943" stroke="url(#paint0_linear_68_53990)" stroke-width="4" stroke-linecap="round" stroke-linejoin="round"/>
<path d="M56.5099 31.9999H52.3071" stroke="url(#paint1_linear_68_53990)" stroke-width="4" stroke-linecap="round" stroke-linejoin="round"/>
<path d="M12.6928 31.9999H8.48999" stroke="url(#paint2_linear_68_53990)" stroke-width="4" stroke-linecap="round" stroke-linejoin="round"/>
<path d="M32.4999 56.0098V51.8069" stroke="url(#paint3_linear_68_53990)" stroke-width="4" stroke-linecap="round" stroke-linejoin="round"/>
<path d="M32.4999 7.98999V12.1928" stroke="url(#paint4_linear_68_53990)" stroke-width="4" stroke-linecap="round" stroke-linejoin="round"/>
<path d="M54.6822 22.8117L50.7981 24.4205" stroke="url(#paint5_linear_68_53990)" stroke-width="4" stroke-linecap="round" stroke-linejoin="round"/>
<path d="M14.2016 39.5793L10.3176 41.1881" stroke="url(#paint6_linear_68_53990)" stroke-width="4" stroke-linecap="round" stroke-linejoin="round"/>
<path d="M23.3117 9.81738L24.9206 13.7015" stroke="url(#paint7_linear_68_53990)" stroke-width="4" stroke-linecap="round" stroke-linejoin="round"/>
<path d="M41.6881 54.1822L40.0792 50.2981" stroke="url(#paint8_linear_68_53990)" stroke-width="4" stroke-linecap="round" stroke-linejoin="round"/>
<path d="M10.3176 22.8117L14.2018 24.4205" stroke="url(#paint9_linear_68_53990)" stroke-width="4" stroke-linecap="round" stroke-linejoin="round"/>
<path d="M50.7981 39.5793L54.6821 41.1881" stroke="url(#paint10_linear_68_53990)" stroke-width="4" stroke-linecap="round" stroke-linejoin="round"/>
<path d="M23.3117 54.1822L24.9206 50.2981" stroke="url(#paint11_linear_68_53990)" stroke-width="4" stroke-linecap="round" stroke-linejoin="round"/>
<path d="M41.6881 9.81738L40.0792 13.7015" stroke="url(#paint12_linear_68_53990)" stroke-width="4" stroke-linecap="round" stroke-linejoin="round"/>
<path d="M49.4775 48.9775L37.3506 36.8506" stroke="url(#paint13_linear_68_53990)" stroke-width="4" stroke-linecap="round" stroke-linejoin="round"/>
<path d="M27.6492 27.1492L15.5222 15.0222" stroke="url(#paint14_linear_68_53990)" stroke-width="4" stroke-linecap="round" stroke-linejoin="round"/>
<path d="M49.4775 15.0222L37.3506 27.1492" stroke="url(#paint15_linear_68_53990)" stroke-width="4" stroke-linecap="round" stroke-linejoin="round"/>
<path d="M27.6492 36.8506L15.5222 48.9775" stroke="url(#paint16_linear_68_53990)" stroke-width="4" stroke-linecap="round" stroke-linejoin="round"/>
<path d="M37.3506 27.1492C39.3125 29.1111 39.8994 32.0617 38.8377 34.6251C37.7759 37.1884 35.2745 38.8598 32.5 38.8598C29.7254 38.8598 27.224 37.1884 26.1623 34.6251C25.1005 32.0617 25.6874 29.1111 27.6493 27.1492C28.9357 25.8627 30.6806 25.1399 32.5 25.1399C34.3193 25.1399 36.0642 25.8627 37.3506 27.1492" stroke="url(#paint17_linear_68_53990)" stroke-width="4" stroke-linecap="round" stroke-linejoin="round"/>
<defs>
<linearGradient id="paint0_linear_68_53990" x1="12.6924" y1="12.1926" x2="52.7756" y2="12.6724" gradientUnits="userSpaceOnUse">
<stop stop-color="#F9F871"/>
<stop offset="1" stop-color="#E23A7A"/>
</linearGradient>
<linearGradient id="paint1_linear_68_53990" x1="52.3071" y1="30.666" x2="56.5587" y2="30.7462" gradientUnits="userSpaceOnUse">
<stop stop-color="#F9F871"/>
<stop offset="1" stop-color="#E23A7A"/>
</linearGradient>
<linearGradient id="paint2_linear_68_53990" x1="8.48999" y1="30.666" x2="12.7416" y2="30.7462" gradientUnits="userSpaceOnUse">
<stop stop-color="#F9F871"/>
<stop offset="1" stop-color="#E23A7A"/>
</linearGradient>
<linearGradient id="paint3_linear_68_53990" x1="31.166" y1="51.8069" x2="33.8656" y2="51.8274" gradientUnits="userSpaceOnUse">
<stop stop-color="#F9F871"/>
<stop offset="1" stop-color="#E23A7A"/>
</linearGradient>
<linearGradient id="paint4_linear_68_53990" x1="31.166" y1="7.98999" x2="33.8656" y2="8.0105" gradientUnits="userSpaceOnUse">
<stop stop-color="#F9F871"/>
<stop offset="1" stop-color="#E23A7A"/>
</linearGradient>
<linearGradient id="paint5_linear_68_53990" x1="50.7981" y1="22.2822" x2="54.7275" y2="22.3507" gradientUnits="userSpaceOnUse">
<stop stop-color="#F9F871"/>
<stop offset="1" stop-color="#E23A7A"/>
</linearGradient>
<linearGradient id="paint6_linear_68_53990" x1="10.3176" y1="39.0498" x2="14.2469" y2="39.1183" gradientUnits="userSpaceOnUse">
<stop stop-color="#F9F871"/>
<stop offset="1" stop-color="#E23A7A"/>
</linearGradient>
<linearGradient id="paint7_linear_68_53990" x1="22.7822" y1="9.81738" x2="25.4818" y2="9.83957" gradientUnits="userSpaceOnUse">
<stop stop-color="#F9F871"/>
<stop offset="1" stop-color="#E23A7A"/>
</linearGradient>
<linearGradient id="paint8_linear_68_53990" x1="39.5498" y1="50.2981" x2="42.2493" y2="50.3203" gradientUnits="userSpaceOnUse">
<stop stop-color="#F9F871"/>
<stop offset="1" stop-color="#E23A7A"/>
</linearGradient>
<linearGradient id="paint9_linear_68_53990" x1="10.3176" y1="22.2822" x2="14.247" y2="22.3507" gradientUnits="userSpaceOnUse">
<stop stop-color="#F9F871"/>
<stop offset="1" stop-color="#E23A7A"/>
</linearGradient>
<linearGradient id="paint10_linear_68_53990" x1="50.7981" y1="39.0498" x2="54.7274" y2="39.1183" gradientUnits="userSpaceOnUse">
<stop stop-color="#F9F871"/>
<stop offset="1" stop-color="#E23A7A"/>
</linearGradient>
<linearGradient id="paint11_linear_68_53990" x1="22.7822" y1="50.2981" x2="25.4818" y2="50.3203" gradientUnits="userSpaceOnUse">
<stop stop-color="#F9F871"/>
<stop offset="1" stop-color="#E23A7A"/>
</linearGradient>
<linearGradient id="paint12_linear_68_53990" x1="39.5498" y1="9.81738" x2="42.2493" y2="9.83957" gradientUnits="userSpaceOnUse">
<stop stop-color="#F9F871"/>
<stop offset="1" stop-color="#E23A7A"/>
</linearGradient>
<linearGradient id="paint13_linear_68_53990" x1="37.3506" y1="36.8506" x2="49.6209" y2="36.9974" gradientUnits="userSpaceOnUse">
<stop stop-color="#F9F871"/>
<stop offset="1" stop-color="#E23A7A"/>
</linearGradient>
<linearGradient id="paint14_linear_68_53990" x1="15.5222" y1="15.0222" x2="27.7925" y2="15.1691" gradientUnits="userSpaceOnUse">
<stop stop-color="#F9F871"/>
<stop offset="1" stop-color="#E23A7A"/>
</linearGradient>
<linearGradient id="paint15_linear_68_53990" x1="37.3506" y1="15.0222" x2="49.6209" y2="15.1691" gradientUnits="userSpaceOnUse">
<stop stop-color="#F9F871"/>
<stop offset="1" stop-color="#E23A7A"/>
</linearGradient>
<linearGradient id="paint16_linear_68_53990" x1="15.5222" y1="36.8506" x2="27.7925" y2="36.9974" gradientUnits="userSpaceOnUse">
<stop stop-color="#F9F871"/>
<stop offset="1" stop-color="#E23A7A"/>
</linearGradient>
<linearGradient id="paint17_linear_68_53990" x1="25.6399" y1="25.1399" x2="39.5223" y2="25.3061" gradientUnits="userSpaceOnUse">
<stop stop-color="#F9F871"/>
<stop offset="1" stop-color="#E23A7A"/>
</linearGradient>
</defs>
</svg>
